<?xml version="1.0" encoding="UTF-8"?>
<svg version="1.1" xmlns="http://www.w3.org/2000/svg" width="524" height="524">
<path d="M0 0 C-1.5595265 3.82792868 -3.83631836 6.36359864 -7 9 C-11.60282992 8.53424081 -13.93913609 5.26348649 -16.9375 2.0625 C-31.69034694 -13.12774604 -49.79114474 -24.27465126 -69 -33 C-70.1125415 -33.50660156 -70.1125415 -33.50660156 -71.24755859 -34.0234375 C-85.06068049 -40.19223569 -99.19116956 -44.01617038 -114 -47 C-114.71510742 -47.14695313 -115.43021484 -47.29390625 -116.16699219 -47.4453125 C-160.95431861 -56.15717734 -211.14118435 -43.50849983 -248.62890625 -18.34375 C-258.80858585 -11.33989541 -268.05791048 -3.51205975 -277 5 C-277.75667969 5.69222656 -278.51335937 6.38445312 -279.29296875 7.09765625 C-304.40688158 30.83922411 -320.67534393 65.64358503 -328 99 C-328.2477417 100.09876465 -328.2477417 100.09876465 -328.50048828 101.21972656 C-333.43291251 124.14249232 -333.16107577 151.15531634 -328 174 C-327.82839355 174.77617676 -327.65678711 175.55235352 -327.47998047 176.35205078 C-317.90708148 218.43345391 -295.05302262 256.29593584 -261 283 C-260.46938965 283.42297363 -259.9387793 283.84594727 -259.39208984 284.28173828 C-232.69422627 305.42506544 -200.52754551 317.4030659 -167 322 C-166.06414062 322.13277344 -165.12828125 322.26554687 -164.1640625 322.40234375 C-140.87179852 325.08426058 -116.48320363 322.41451631 -94 316 C-93.30841797 315.80599609 -92.61683594 315.61199219 -91.90429688 315.41210938 C-61.38521551 306.63264761 -35.9129378 289.54207827 -13 268 C-12.36320312 267.41734375 -11.72640625 266.8346875 -11.0703125 266.234375 C21.69274527 235.19568869 39.24654962 187.32941741 41 143 C41.04125 142.09121094 41.0825 141.18242187 41.125 140.24609375 C41.87915121 107.11057498 32.68674155 76.31246992 18 47 C21.18031122 43.2341894 24.35141825 39.51561011 27.875 36.0625 C28.47054688 35.47597656 29.06609375 34.88945313 29.6796875 34.28515625 C30.11539062 33.86105469 30.55109375 33.43695313 31 33 C34.30197127 34.10065709 34.77629928 34.66651625 36.75 37.3671875 C37.53068848 38.4334436 37.53068848 38.4334436 38.32714844 39.52124023 C38.87918945 40.29798096 39.43123047 41.07472168 40 41.875 C40.57524414 42.68074463 41.15048828 43.48648926 41.74316406 44.31665039 C66.64849667 79.77072925 82.92657776 123.40972278 84 167 C84.02046387 167.77956055 84.04092773 168.55912109 84.06201172 169.36230469 C84.72742834 198.6296374 80.99711427 227.38864541 71 255 C70.71286133 255.79680176 70.42572266 256.59360352 70.12988281 257.41455078 C63.13957709 276.48486049 53.92695021 294.54005085 42 311 C41.59426758 311.56122559 41.18853516 312.12245117 40.77050781 312.70068359 C34.72944253 320.97181699 28.09008933 328.61160814 21 336 C20.41476562 336.6177832 19.82953125 337.23556641 19.2265625 337.87207031 C9.55686234 348.03829553 -0.58727215 356.84884666 -12 365 C-12.58475098 365.42941895 -13.16950195 365.85883789 -13.77197266 366.30126953 C-60.35282694 400.41017095 -121.669662 413.3531822 -178.48388672 405.47875977 C-224.71506121 398.22845387 -264.56459614 378.09496179 -300 348 C-306.14698595 353.03837892 -311.71746085 358.59971721 -317.30916786 364.23400307 C-319.01751299 365.95523347 -320.72906941 367.67321346 -322.44145203 369.39042664 C-326.06797032 373.02829992 -329.69050914 376.67011978 -333.3125 380.3125 C-337.52896678 384.55257755 -341.74705413 388.79101674 -345.96935081 393.02528954 C-347.65653211 394.7189581 -349.34067914 396.41560502 -351.0247345 398.11238098 C-352.05320775 399.14448463 -353.08182046 400.17644933 -354.1105957 401.20825195 C-355.45792534 402.56343681 -355.45792534 402.56343681 -356.83247375 403.94599915 C-360.09437326 407.03705485 -362.43525858 407.42263143 -366.95703125 407.33203125 C-369 407 -369 407 -372 405.0625 C-374.27123915 401.58466505 -374.90203088 399.52870362 -374.56312561 395.42431641 C-373.91998766 392.65553827 -373.10482424 391.53036203 -371.19311523 389.453125 C-370.55630829 388.76049561 -369.91950134 388.06786621 -369.26339722 387.35424805 C-364.62329981 382.52790109 -359.90559144 377.78478129 -355.16015625 373.0625 C-354.02650857 371.93072136 -352.89308441 370.7987188 -351.75987244 369.66650391 C-348.80136149 366.71177989 -345.83985819 363.76007347 -342.87768555 360.809021 C-339.84565275 357.78728529 -336.81650933 354.76265606 -333.78710938 351.73828125 C-327.86087033 345.82271195 -321.93146158 339.91033271 -316 334 C-317.84012103 330.11378985 -320.30960015 326.95311056 -323 323.625 C-332.51323868 311.64478488 -340.81411711 299.5189793 -348 286 C-348.33741211 285.37963867 -348.67482422 284.75927734 -349.02246094 284.12011719 C-357.70095898 268.10934664 -364.06507757 250.99370072 -368.375 233.3125 C-368.6013916 232.38961182 -368.8277832 231.46672363 -369.06103516 230.51586914 C-372.8291997 214.04890513 -374.507163 197.64235155 -374.39111328 180.77050781 C-374.37500088 178.00015078 -374.39110118 175.23125167 -374.41015625 172.4609375 C-374.43080237 155.60077783 -372.39474052 139.07402229 -368.375 122.6875 C-368.12411621 121.65826416 -367.87323242 120.62902832 -367.61474609 119.56860352 C-363.19982423 102.24497726 -356.53345985 85.68950355 -348 70 C-347.64969727 69.3409668 -347.29939453 68.68193359 -346.93847656 68.00292969 C-331.65639586 39.29238994 -309.3259704 13.14934283 -283 -6 C-282.36835938 -6.46003418 -281.73671875 -6.92006836 -281.0859375 -7.39404297 C-271.45863699 -14.33883619 -261.52239697 -20.5081333 -251 -26 C-250.30132812 -26.36834961 -249.60265625 -26.73669922 -248.8828125 -27.11621094 C-227.59698997 -38.1913704 -204.60379973 -45.02415922 -181 -49 C-179.90872803 -49.19480957 -179.90872803 -49.19480957 -178.79541016 -49.39355469 C-116.21598809 -60.16282616 -48.67153712 -39.74528996 0 0 Z " fill="#79C242" transform="translate(406,86)"/>
<path d="M0 0 C3.00697829 1.53547827 4.53577667 2.61886352 5.62890625 5.87109375 C6.50149792 10.73005156 5.77559227 12.84742395 3 17 C1.2772977 18.90204805 -0.4520668 20.71745574 -2.27299786 22.51909351 C-2.80660873 23.05501207 -3.3402196 23.59093063 -3.89000049 24.14308915 C-5.68242374 25.94081356 -7.48190141 27.73130481 -9.28141785 29.52192688 C-10.57962158 30.82100265 -11.87738576 32.12051779 -13.17474729 33.42043465 C-16.74357639 36.99374156 -20.31862147 40.56077266 -23.89469564 44.12682688 C-27.74900834 47.97251367 -31.59755087 51.82396717 -35.4467926 55.67472839 C-42.11749848 62.34648367 -48.79186044 69.01456332 -55.46870995 75.68017006 C-65.12234305 85.31755853 -74.77045776 94.96045593 -84.41722862 104.60471275 C-100.06810745 120.25121285 -115.72344032 135.89324896 -131.3815918 151.5324707 C-146.59324985 166.72576002 -161.80280578 181.92114866 -177.00952148 197.11938477 C-177.47826046 197.58786069 -177.94699944 198.05633662 -178.42994263 198.53900878 C-183.60429595 203.7104634 -188.77859178 208.88197555 -193.95286405 214.05351126 C-232.96217411 253.04208329 -271.9787247 292.0234035 -311 331 C-309.14062801 335.23292009 -306.35190687 337.10663304 -302.5625 339.5625 C-295.45440432 344.24649264 -295.45440432 344.24649264 -293 347 C-311.39617128 344.61134985 -330.72182388 327.01486103 -343.48242188 314.48242188 C-344.98538818 313.01427332 -346.51283624 311.57620171 -348.046875 310.140625 C-380.28194085 279.54983369 -396.52849611 235.3743881 -398.125 191.5703125 C-398.96098803 142.97850799 -380.07941563 98.36210955 -346.55859375 63.56640625 C-316.62747035 33.19903976 -273.62507391 14.07645346 -230.90840149 13.67776489 C-228.54294908 13.67029914 -226.17793457 13.67627091 -223.8125 13.6875 C-222.99507324 13.68965515 -222.17764648 13.6918103 -221.33544922 13.69403076 C-209.3353519 13.74480402 -197.69593693 14.07210146 -186 17 C-185.16694336 17.20399414 -184.33388672 17.40798828 -183.47558594 17.61816406 C-150.58261242 25.88049416 -123.62675634 41.79762226 -99 65 C-98.36964844 65.51949219 -97.73929687 66.03898437 -97.08984375 66.57421875 C-96 68 -96 68 -96.16087341 69.79681396 C-97.30452513 72.7995522 -99.05626723 74.41548031 -101.33618164 76.67675781 C-102.71750023 78.05773651 -102.71750023 78.05773651 -104.12672424 79.46661377 C-105.13770904 80.46227919 -106.1488569 81.45777907 -107.16015625 82.453125 C-108.19071141 83.47808326 -109.22060494 84.50370714 -110.24986267 85.52996826 C-112.95750592 88.22617017 -115.67403772 90.91324072 -118.39251709 93.59851074 C-121.16618973 96.34146729 -123.93136429 99.09296124 -126.69726562 101.84375 C-132.12322744 107.2375602 -137.55860743 112.62175234 -143 118 C-146.96138614 116.47837219 -150.25472193 114.63715858 -153.8125 112.3125 C-183.95245819 93.32085199 -220.87782044 89.00334994 -255.3125 96.625 C-289.94099429 104.8925631 -320.02914569 126.92907178 -338.81103516 157.05322266 C-356.90805158 186.68476453 -364.27173304 223.2650405 -356.63378906 257.45996094 C-351.95458765 276.21281589 -343.22388144 305.51741237 -326 317 C-325.33211303 316.33173331 -324.66422606 315.66346662 -323.97610009 314.97494942 C-284.43112308 275.40757772 -244.88351395 235.84283845 -205.33253325 196.28146792 C-200.58836735 191.53605464 -195.84422605 186.79061679 -191.10009766 182.04516602 C-190.62798888 181.57292648 -190.15588011 181.10068695 -189.66946501 180.61413713 C-174.35550968 165.29591726 -159.04317983 149.97607373 -143.73168834 134.65539112 C-127.55720319 118.47121442 -111.38087525 102.28888124 -95.20259082 86.10850233 C-85.50600021 76.41053652 -75.81089983 66.71108574 -66.11767362 57.00975715 C-59.47926803 50.36608392 -52.83904006 43.72423581 -46.19734873 37.08384735 C-42.35997203 33.247114 -38.5234302 29.40955503 -34.68904114 25.56983566 C-31.18390221 22.05985947 -27.67649929 18.55216283 -24.1672226 15.04632371 C-22.89310186 13.77262834 -21.61983982 12.49807332 -20.34749104 11.22260786 C-18.62767014 9.49881691 -16.90484601 7.77808652 -15.18118477 6.05813694 C-14.67946564 5.55379079 -14.1777465 5.04944465 -13.66082376 4.52981529 C-9.31436578 0.20470974 -6.15650062 -0.81379031 0 0 Z " fill="#2A95D2" transform="translate(484,35)"/>
<path d="M0 0 C20.37563258 44.88900217 26.14427535 93.35882576 9.07275391 140.56396484 C1.19505319 161.17427497 -9.58112463 179.27315283 -24 196 C-24.84304688 196.97839844 -25.68609375 197.95679688 -26.5546875 198.96484375 C-40.04699695 214.30544866 -56.39193082 226.16640221 -74.375 235.75 C-75.20209473 236.19287354 -76.02918945 236.63574707 -76.88134766 237.09204102 C-77.6501123 237.48963623 -78.41887695 237.88723145 -79.2109375 238.296875 C-79.89462402 238.65104492 -80.57831055 239.00521484 -81.28271484 239.37011719 C-81.84941895 239.57797852 -82.41612305 239.78583984 -83 240 C-83.66 239.67 -84.32 239.34 -85 239 C-83.44152344 237.85724609 -83.44152344 237.85724609 -81.8515625 236.69140625 C-50.10046867 213.25852691 -27.06518503 183.19702122 -20.72290039 143.30126953 C-16.25140245 108.63867033 -23.0976457 72.50321041 -44 44 C-42.54360224 40.65405979 -40.70260396 38.44965533 -38.1328125 35.87402344 C-37.33858887 35.07349548 -36.54436523 34.27296753 -35.72607422 33.44818115 C-34.86771973 32.59387512 -34.00936523 31.73956909 -33.125 30.859375 C-32.24473145 29.97719299 -31.36446289 29.09501099 -30.45751953 28.18609619 C-28.12101752 25.84788561 -25.77970581 23.51461799 -23.43676758 21.18286133 C-21.52179237 19.27309251 -19.61427599 17.35595907 -17.70669556 15.43880844 C-15.43430977 13.1574764 -13.15433769 10.88375806 -10.875 8.609375 C-9.58746826 7.31577057 -9.58746826 7.31577057 -8.27392578 5.99603271 C-7.08259033 4.81415375 -7.08259033 4.81415375 -5.8671875 3.60839844 C-4.81700439 2.56060211 -4.81700439 2.56060211 -3.74560547 1.49163818 C-2 0 -2 0 0 0 Z " fill="#35ADDC" transform="translate(416,142)"/>
<path d="M0 0 C4.00374431 1.83692389 6.71957934 4.49117916 9.75 7.625 C10.25660156 8.140625 10.76320313 8.65625 11.28515625 9.1875 C12.52803902 10.45383339 13.76465276 11.7263144 15 13 C9.3930996 19.83592711 3.140991 26.00447238 -3.109375 32.2421875 C-4.28442738 33.41791444 -5.45933136 34.5937897 -6.63409424 35.76980591 C-9.08338148 38.22056008 -11.53445003 40.66951461 -13.98681641 43.1171875 C-17.13320602 46.25784878 -20.27504232 49.40302098 -23.41558456 52.54952812 C-25.83464385 54.97219333 -28.25607028 57.39248126 -30.67823029 59.81204605 C-31.83841643 60.97156465 -32.9978589 62.13182784 -34.15654755 63.29284286 C-35.76960546 64.90843118 -37.38581789 66.52079503 -39.00292969 68.13232422 C-39.92193054 69.05052948 -40.8409314 69.96873474 -41.78778076 70.9147644 C-45.08058699 74.0185602 -47.39983382 74.42334122 -51.95703125 74.33203125 C-54 74 -54 74 -57 72.0625 C-59.27144708 68.58434665 -59.90263164 66.5282602 -59.56227112 62.42346191 C-58.92108758 59.65987719 -58.1143064 58.54009402 -56.20678711 56.46679688 C-55.5698996 55.77408691 -54.93301208 55.08137695 -54.27682495 54.36767578 C-49.5603459 49.46299779 -44.76415671 44.64343698 -39.94140625 39.84375 C-38.78533837 38.68955106 -37.62949394 37.53512828 -36.47386169 36.38049316 C-33.4561667 33.36658592 -30.43547913 30.35569597 -27.41412354 27.34545898 C-24.32176853 24.26339926 -21.23230132 21.17844767 -18.14257812 18.09375 C-12.09784888 12.05969196 -6.04994994 6.02882357 0 0 Z " fill="#4AC0D4" transform="translate(91,419)"/>
<path d="M0 0 C-1.5595265 3.82792868 -3.83631836 6.36359864 -7 9 C-11.60282992 8.53424081 -13.93913609 5.26348649 -16.9375 2.0625 C-31.69034694 -13.12774604 -49.79114474 -24.27465126 -69 -33 C-69.74169434 -33.33773437 -70.48338867 -33.67546875 -71.24755859 -34.0234375 C-85.06068049 -40.19223569 -99.19116956 -44.01617038 -114 -47 C-114.71510742 -47.14695313 -115.43021484 -47.29390625 -116.16699219 -47.4453125 C-136.72045791 -51.44329652 -159.65885087 -49.91677812 -180.11816406 -46.28125 C-182.4277653 -45.93606829 -184.66932321 -45.88767823 -187 -46 C-186.67 -46.66 -186.34 -47.32 -186 -48 C-183.6640625 -48.59765625 -183.6640625 -48.59765625 -180.625 -49.0625 C-179.64789063 -49.21847656 -178.67078125 -49.37445313 -177.6640625 -49.53515625 C-114.1240112 -57.59620753 -49.78817604 -40.6571399 0 0 Z " fill="#92C83F" transform="translate(406,86)"/>
</svg>
